Coordinates
version=1
nRows=9
nColumns=24
inDegrees=yes

Units are S.I. units (second, meters, Newtons, ...)
Angles are in degrees.

endheader
time	pelvis_tilt	pelvis_list	pelvis_rotation	pelvis_tx	pelvis_ty	pelvis_tz	hip_flexion_r	hip_adduction_r	hip_rotation_r	knee_angle_r	ankle_angle_r	subtalar_angle_r	mtp_angle_r	hip_flexion_l	hip_adduction_l	hip_rotation_l	knee_angle_l	ankle_angle_l	subtalar_angle_l	mtp_angle_l	lumbar_extension	lumbar_bending	lumbar_rotation
      0.66700000	      0.60183515	      0.19100569	     -3.20052731	     -0.48544918	      1.06671207	      0.32120992	     11.05873086	      4.38820651	     -0.50014476	    -16.58388146	      4.47167907	     -8.68152793	      5.85866757	     18.85587718	     -0.71350814	     -4.01799036	    -64.73054779	      4.14024039	     -4.09168411	     19.38023729	     -0.92726606	      3.48542040	      1.28462498
      0.67116667	      0.61606689	      0.26929793	     -3.21986555	     -0.48011877	      1.06735184	      0.32136322	     10.67639608	      4.31714926	     -0.37301502	    -16.49886426	      4.71359791	     -8.89362280	      5.84351961	     19.31072478	     -0.60187540	     -3.91606188	    -64.10122958	      4.67405749	     -4.47922047	     19.19596975	     -0.92276042	      3.34639134	      1.36092258
      0.67533333	      0.62795634	      0.32848610	     -3.19715569	     -0.47465583	      1.06801160	      0.32152061	     10.26182280	      4.26328531	     -0.26600527	    -16.34065921	      4.81688427	     -8.97307576	      5.83501542	     19.73718641	     -0.50587237	     -3.78109865	    -63.36412456	      4.88392146	     -4.64695947	     19.08911340	     -0.88123467	      3.25449756	      1.40998681
      0.67950000	      0.59228366	      0.39037640	     -3.18504089	     -0.46930784	      1.06852467	      0.32155944	      9.91811911	      4.19560786	     -0.16723449	    -16.21214473	      4.88521131	     -9.02103460	      5.83143548	     20.20730230	     -0.39738600	     -3.64789029	    -62.56595263	      5.03076297	     -4.74689012	     19.04411302	     -0.94612265	      3.23798664	      1.42135125
      0.68366667	      0.62405326	      0.44570585	     -3.18229264	     -0.46377150	      1.06919088	      0.32172706	      9.47099885	      4.14421103	     -0.09950128	    -16.03728502	      5.06158337	     -9.15162067	      5.82244567	     20.55139599	     -0.30981660	     -3.57070879	    -61.66474403	      5.33215673	     -5.05038317	     18.92863977	     -0.86322045	      3.11841356	      1.47555941
      0.68783333	      0.62059819	      0.49397375	     -3.18183400	     -0.45832297	      1.06973455	      0.32183732	      9.06963163	      4.09535377	     -0.00224069	    -15.87401144	      5.20191330	     -9.25595439	      5.81175995	     20.92190668	     -0.22626574	     -3.49008904	    -60.70091818	      5.52886556	     -5.34599483	     18.78727139	     -0.87338641	      3.06239479	      1.51554612
      0.69200000	      0.64231371	      0.54443855	     -3.20256406	     -0.45295418	      1.07028142	      0.32194917	      8.64757178	      4.04148945	      0.10900813	    -15.71188522	      5.35284788	     -9.36648766	      5.78626306	     21.24567090	     -0.14344322	     -3.44706583	    -59.65868395	      5.62327730	     -5.84979838	     18.44144584	     -1.01177954	      2.96640603	      1.58435428
      0.69616667	      0.58735583	      0.56575161	     -3.16376599	     -0.44751829	      1.07066638	      0.32194751	      8.28989735	      4.01159488	      0.18011849	    -15.52165101	      5.40142734	     -9.38535234	      5.78250623	     21.63297454	     -0.07251850	     -3.32011527	    -58.55835859	      5.70679296	     -5.91041301	     18.39078334	     -1.01061444	      3.01431998	      1.58899075
      0.70033333	      0.59921954	      0.58866622	     -3.13863515	     -0.44189903	      1.07119926	      0.32201959	      7.83558272	      3.98301988	      0.20787155	    -15.29694826	      5.52384950	     -9.45522353	      5.77424318	     21.89115751	     -0.00683472	     -3.24997193	    -57.34987079	      5.82600466	     -6.14641369	     18.28056775	     -0.86633202	      2.98213224	      1.62408223
